M48
;DRILL file {KiCad 4.0.7} date 04/15/18 13:27:16
;FORMAT={-:-/ absolute / inch / decimal}
FMAT,2
INCH,TZ
T1C0.016
T2C0.039
T3C0.120
T4C0.126
%
G90
G05
M72
T1
X1.2301Y-5.2795
X1.2301Y-5.9961
X1.3348Y-5.6362
X1.767Y-5.9094
X1.9014Y-5.7638
X1.9211Y-5.7323
X1.9329Y-5.3071
X1.9407Y-5.7008
X1.9604Y-5.8839
X1.9644Y-5.6693
X2.0687Y-6.0374
X2.1435Y-5.3071
X2.2931Y-6.2717
X2.3108Y-6.1319
X2.3187Y-5.248
X2.3423Y-5.4587
X2.3423Y-6.1713
X2.3738Y-5.4902
X2.4998Y-5.9587
X2.5589Y-5.6673
X2.5667Y-5.8268
X2.6258Y-5.7343
X2.6258Y-5.8583
X2.6789Y-5.2087
X2.8266Y-5.7953
X2.8719Y-5.6063
X2.8719Y-5.6693
X2.9191Y-5.2441
X2.9191Y-5.5098
X2.923Y-5.7028
X2.9337Y-5.0657
X3.0136Y-5.8583
X3.0884Y-5.9213
X3.3719Y-5.2441
X3.6219Y-5.1059
T2
X1.4323Y-5.3636
X1.4323Y-5.4726
X1.4323Y-5.5817
X1.4323Y-5.6907
X1.4323Y-5.7998
X1.4323Y-5.9089
X1.4323Y-6.0179
X1.5441Y-5.3091
X1.5441Y-5.4181
X1.5441Y-5.5272
X1.5441Y-5.6362
X1.5441Y-5.7453
X1.5441Y-5.8543
X1.5441Y-5.9634
X1.5441Y-6.0724
X1.8392Y-6.2224
X1.8407Y-6.372
X1.9392Y-6.2224
X1.9407Y-6.372
X2.0392Y-6.2224
X2.0407Y-6.372
X2.1407Y-6.372
X2.2407Y-6.372
X2.3407Y-6.372
X2.4407Y-6.372
X2.7203Y-6.2185
X2.7203Y-6.3681
X2.8203Y-6.2185
X2.8203Y-6.3681
X2.9203Y-6.2185
X2.9203Y-6.3681
X3.0203Y-6.3681
X3.1203Y-6.3681
X3.2203Y-6.3681
X3.4219Y-5.0059
X3.4219Y-5.1059
X3.5156Y-5.3091
X3.5156Y-5.4091
X3.5156Y-5.5091
X3.5156Y-5.6091
X3.5156Y-5.7091
X3.5156Y-5.8091
X3.5156Y-5.9091
X3.5219Y-5.0059
X3.5219Y-5.1059
X3.6156Y-5.3091
X3.6156Y-5.4091
X3.6156Y-5.5091
X3.6156Y-5.6091
X3.6156Y-5.7091
X3.6156Y-5.8091
X3.6156Y-5.9091
X3.6219Y-5.0059
X3.6219Y-5.1059
T3
X1.7537Y-5.0217
X3.4843Y-6.3504
T4
X1.4882Y-5.0352
X1.4882Y-6.3463
T0
M30
