M48
;DRILL file {KiCad 4.0.7} date 01/10/19 16:23:16
;FORMAT={-:-/ absolute / inch / decimal}
FMAT,2
INCH,TZ
T1C0.016
T2C0.026
T3C0.028
T4C0.039
T5C0.039
T6C0.043
T7C0.051
T8C0.120
%
G90
G05
M72
T1
X3.8346Y-3.9016
X3.8504Y-4.063
X3.8504Y-4.126
X3.874Y-3.7559
X3.9291Y-4.6575
X3.9843Y-3.9685
X4.0315Y-4.0768
X4.063Y-4.189
X4.0886Y-3.6953
X4.0945Y-4.1575
X4.1189Y-3.9735
X4.126Y-4.126
X4.1811Y-3.9921
X4.2362Y-3.9134
X4.2598Y-4.7323
X4.2884Y-4.2579
X4.2884Y-4.3749
X4.315Y-4.
X4.3228Y-4.126
X4.3696Y-4.1895
X4.3745Y-4.4375
X4.5217Y-3.378
X4.6929Y-4.2697
T4
X3.4646Y-3.4252
X3.4646Y-3.6024
X3.4646Y-3.8189
X3.4646Y-3.9961
X3.4646Y-4.2126
X3.4646Y-4.3898
T5
X3.7736Y-3.6102
X3.7764Y-3.4843
X3.8736Y-3.6102
X3.8764Y-3.4843
X3.9736Y-3.6102
X3.9764Y-3.4843
X4.0736Y-3.6102
X4.1736Y-3.6102
X4.1756Y-3.315
X4.1799Y-3.4449
X4.2736Y-3.6102
X4.2756Y-3.315
X4.2799Y-3.4449
X4.3736Y-3.6102
X4.3756Y-3.315
X4.3799Y-3.4449
X4.4756Y-3.315
X4.5768Y-4.1732
X4.5866Y-3.5665
X4.5866Y-3.6665
X4.5866Y-3.7665
X4.5866Y-3.8665
X4.5866Y-3.9665
X4.5866Y-4.3768
X4.5866Y-4.4768
X4.5866Y-4.5768
X4.5866Y-4.8031
X4.5866Y-4.9031
X4.5866Y-5.0031
X4.6768Y-4.1732
X4.6866Y-3.5665
X4.6866Y-3.6665
X4.6866Y-3.7665
X4.6866Y-3.8665
X4.6866Y-3.9665
X4.6866Y-4.3768
X4.6866Y-4.4768
X4.6866Y-4.5768
X4.6866Y-4.8031
X4.6866Y-4.9031
X4.6866Y-5.0031
T6
X3.4055Y-4.7244
X3.4055Y-4.9803
X3.5827Y-4.7244
X3.5827Y-4.9803
T7
X3.5626Y-3.376
X3.5626Y-3.652
X3.5626Y-3.7697
X3.5626Y-4.0457
X3.5626Y-4.1634
X3.5626Y-4.4394
T8
X3.4331Y-4.563
X4.6693Y-3.3543
T2
X4.1961Y-4.885G85X4.1961Y-4.8693
G05
X4.3866Y-4.885G85X4.3866Y-4.8693
G05
T3
X4.1839Y-5.0051G85X4.1839Y-4.9854
G05
X4.3988Y-5.0051G85X4.3988Y-4.9854
G05
T0
M30
