G04 #@! TF.FileFunction,Soldermask,Top*
%FSLAX46Y46*%
G04 Gerber Fmt 4.6, Leading zero omitted, Abs format (unit mm)*
G04 Created by KiCad (PCBNEW 4.0.7) date 01/10/19 16:23:13*
%MOMM*%
%LPD*%
G01*
G04 APERTURE LIST*
%ADD10C,0.100000*%
%ADD11C,2.100000*%
%ADD12O,2.100000X2.100000*%
%ADD13R,2.100000X2.100000*%
%ADD14R,0.800000X2.050000*%
%ADD15O,1.500000X1.900000*%
%ADD16O,1.600000X2.100000*%
%ADD17R,1.830000X2.900000*%
%ADD18C,2.500000*%
%ADD19C,2.150000*%
%ADD20C,4.464000*%
%ADD21R,2.000000X0.950000*%
%ADD22R,0.950000X2.000000*%
%ADD23R,1.650000X1.900000*%
%ADD24R,3.000000X2.000000*%
%ADD25R,1.900000X1.650000*%
%ADD26R,4.200000X2.400000*%
%ADD27R,1.900000X2.400000*%
%ADD28R,1.700000X2.000000*%
%ADD29C,2.400000*%
%ADD30R,1.900000X1.700000*%
G04 APERTURE END LIST*
D10*
D11*
X113680000Y-84200000D03*
D12*
X111140000Y-84200000D03*
X108600000Y-84200000D03*
X106060000Y-84200000D03*
D13*
X116250000Y-106000000D03*
D12*
X118790000Y-106000000D03*
D11*
X116500000Y-122000000D03*
D13*
X119040000Y-122000000D03*
D12*
X116500000Y-124540000D03*
D13*
X119040000Y-124540000D03*
D12*
X116500000Y-127080000D03*
D13*
X119040000Y-127080000D03*
D11*
X111250000Y-87500000D03*
D12*
X108710000Y-87500000D03*
X106170000Y-87500000D03*
D11*
X101000000Y-88500000D03*
D12*
X98460000Y-88500000D03*
X95920000Y-88500000D03*
D13*
X116500000Y-111170000D03*
D12*
X119040000Y-111170000D03*
X116500000Y-113710000D03*
X119040000Y-113710000D03*
X116500000Y-116250000D03*
X119040000Y-116250000D03*
D11*
X116500000Y-90590000D03*
D12*
X119040000Y-90590000D03*
X116500000Y-93130000D03*
X119040000Y-93130000D03*
X116500000Y-95670000D03*
X119040000Y-95670000D03*
X116500000Y-98210000D03*
X119040000Y-98210000D03*
X116500000Y-100750000D03*
X119040000Y-100750000D03*
D11*
X95850000Y-91700000D03*
D12*
X98390000Y-91700000D03*
X100930000Y-91700000D03*
X103470000Y-91700000D03*
X106010000Y-91700000D03*
X108550000Y-91700000D03*
X111090000Y-91700000D03*
D14*
X107700000Y-124000000D03*
X108350000Y-124000000D03*
X109000000Y-124000000D03*
X109650000Y-124000000D03*
X110300000Y-124000000D03*
D15*
X106580000Y-123880000D03*
X111420000Y-123880000D03*
D16*
X106270000Y-126880000D03*
X111730000Y-126880000D03*
D17*
X108040000Y-127120000D03*
X109960000Y-127120000D03*
D18*
X90490000Y-102760000D03*
D19*
X88000000Y-101500000D03*
X88000000Y-97000000D03*
D18*
X90490000Y-95750000D03*
X90490000Y-112760000D03*
D19*
X88000000Y-111500000D03*
X88000000Y-107000000D03*
D18*
X90490000Y-105750000D03*
D20*
X87200000Y-115900000D03*
D21*
X99350000Y-100800000D03*
X99350000Y-101600000D03*
X99350000Y-102400000D03*
X99350000Y-103200000D03*
X99350000Y-104000000D03*
X99350000Y-104800000D03*
X99350000Y-105600000D03*
X99350000Y-106400000D03*
D22*
X100800000Y-107850000D03*
X101600000Y-107850000D03*
X102400000Y-107850000D03*
X103200000Y-107850000D03*
X104000000Y-107850000D03*
X104800000Y-107850000D03*
X105600000Y-107850000D03*
X106400000Y-107850000D03*
D21*
X107850000Y-106400000D03*
X107850000Y-105600000D03*
X107850000Y-104800000D03*
X107850000Y-104000000D03*
X107850000Y-103200000D03*
X107850000Y-102400000D03*
X107850000Y-101600000D03*
X107850000Y-100800000D03*
D22*
X106400000Y-99350000D03*
X105600000Y-99350000D03*
X104800000Y-99350000D03*
X104000000Y-99350000D03*
X103200000Y-99350000D03*
X102400000Y-99350000D03*
X101600000Y-99350000D03*
X100800000Y-99350000D03*
D23*
X94850000Y-105650000D03*
X94850000Y-108150000D03*
X113200000Y-101150000D03*
X113200000Y-103650000D03*
X94600000Y-100950000D03*
X94600000Y-103450000D03*
X96200000Y-100950000D03*
X96200000Y-103450000D03*
X111200000Y-101150000D03*
X111200000Y-103650000D03*
X103000000Y-124250000D03*
X103000000Y-126750000D03*
D24*
X95200000Y-116000000D03*
X98800000Y-116000000D03*
D25*
X105750000Y-120500000D03*
X103250000Y-120500000D03*
X103250000Y-112500000D03*
X105750000Y-112500000D03*
X87500000Y-124250000D03*
X90000000Y-124250000D03*
D23*
X113200000Y-105950000D03*
X113200000Y-108450000D03*
D25*
X90250000Y-90250000D03*
X92750000Y-90250000D03*
X90250000Y-100250000D03*
X92750000Y-100250000D03*
X90250000Y-110250000D03*
X92750000Y-110250000D03*
X112250000Y-116000000D03*
X109750000Y-116000000D03*
X112250000Y-118000000D03*
X109750000Y-118000000D03*
X112250000Y-120000000D03*
X109750000Y-120000000D03*
D18*
X90490000Y-92760000D03*
D19*
X88000000Y-91500000D03*
X88000000Y-87000000D03*
D18*
X90490000Y-85750000D03*
D26*
X97500000Y-126650000D03*
D27*
X97500000Y-120350000D03*
X95200000Y-120350000D03*
X99800000Y-120350000D03*
D28*
X105500000Y-118150000D03*
X105500000Y-114850000D03*
X103500000Y-114850000D03*
X103500000Y-118150000D03*
D29*
X91000000Y-120000000D03*
X86500000Y-120000000D03*
X91000000Y-126500000D03*
X86500000Y-126500000D03*
D25*
X90000000Y-122250000D03*
X87500000Y-122250000D03*
X92750000Y-108250000D03*
X90250000Y-108250000D03*
X92750000Y-98250000D03*
X90250000Y-98250000D03*
X92750000Y-88250000D03*
X90250000Y-88250000D03*
D30*
X100100000Y-84800000D03*
X102800000Y-84800000D03*
X97750000Y-84800000D03*
X95050000Y-84800000D03*
D20*
X118600000Y-85200000D03*
M02*
