G04 #@! TF.FileFunction,Soldermask,Bot*
%FSLAX46Y46*%
G04 Gerber Fmt 4.6, Leading zero omitted, Abs format (unit mm)*
G04 Created by KiCad (PCBNEW 4.0.7) date 01/10/19 16:23:13*
%MOMM*%
%LPD*%
G01*
G04 APERTURE LIST*
%ADD10C,0.100000*%
%ADD11C,2.100000*%
%ADD12O,2.100000X2.100000*%
%ADD13R,2.100000X2.100000*%
%ADD14O,1.500000X1.900000*%
%ADD15O,1.600000X2.100000*%
%ADD16C,2.500000*%
%ADD17C,2.150000*%
%ADD18C,4.464000*%
%ADD19C,2.400000*%
G04 APERTURE END LIST*
D10*
D11*
X113680000Y-84200000D03*
D12*
X111140000Y-84200000D03*
X108600000Y-84200000D03*
X106060000Y-84200000D03*
D13*
X116250000Y-106000000D03*
D12*
X118790000Y-106000000D03*
D11*
X116500000Y-122000000D03*
D13*
X119040000Y-122000000D03*
D12*
X116500000Y-124540000D03*
D13*
X119040000Y-124540000D03*
D12*
X116500000Y-127080000D03*
D13*
X119040000Y-127080000D03*
D11*
X111250000Y-87500000D03*
D12*
X108710000Y-87500000D03*
X106170000Y-87500000D03*
D11*
X101000000Y-88500000D03*
D12*
X98460000Y-88500000D03*
X95920000Y-88500000D03*
D13*
X116500000Y-111170000D03*
D12*
X119040000Y-111170000D03*
X116500000Y-113710000D03*
X119040000Y-113710000D03*
X116500000Y-116250000D03*
X119040000Y-116250000D03*
D11*
X116500000Y-90590000D03*
D12*
X119040000Y-90590000D03*
X116500000Y-93130000D03*
X119040000Y-93130000D03*
X116500000Y-95670000D03*
X119040000Y-95670000D03*
X116500000Y-98210000D03*
X119040000Y-98210000D03*
X116500000Y-100750000D03*
X119040000Y-100750000D03*
D11*
X95850000Y-91700000D03*
D12*
X98390000Y-91700000D03*
X100930000Y-91700000D03*
X103470000Y-91700000D03*
X106010000Y-91700000D03*
X108550000Y-91700000D03*
X111090000Y-91700000D03*
D14*
X106580000Y-123880000D03*
X111420000Y-123880000D03*
D15*
X106270000Y-126880000D03*
X111730000Y-126880000D03*
D16*
X90490000Y-102760000D03*
D17*
X88000000Y-101500000D03*
X88000000Y-97000000D03*
D16*
X90490000Y-95750000D03*
X90490000Y-112760000D03*
D17*
X88000000Y-111500000D03*
X88000000Y-107000000D03*
D16*
X90490000Y-105750000D03*
D18*
X87200000Y-115900000D03*
D16*
X90490000Y-92760000D03*
D17*
X88000000Y-91500000D03*
X88000000Y-87000000D03*
D16*
X90490000Y-85750000D03*
D19*
X91000000Y-120000000D03*
X86500000Y-120000000D03*
X91000000Y-126500000D03*
X86500000Y-126500000D03*
D18*
X118600000Y-85200000D03*
M02*
