G04 #@! TF.FileFunction,Legend,Top*
%FSLAX46Y46*%
G04 Gerber Fmt 4.6, Leading zero omitted, Abs format (unit mm)*
G04 Created by KiCad (PCBNEW 4.0.7) date 01/10/19 16:23:13*
%MOMM*%
%LPD*%
G01*
G04 APERTURE LIST*
%ADD10C,0.100000*%
%ADD11C,0.150000*%
%ADD12C,0.300000*%
%ADD13C,0.120000*%
G04 APERTURE END LIST*
D10*
D11*
X108550000Y-90100000D02*
X108550000Y-90350000D01*
X98500000Y-90100000D02*
X108550000Y-90100000D01*
X98500000Y-89850000D02*
X98500000Y-90100000D01*
D10*
X121076190Y-114435714D02*
X120576190Y-114435714D01*
X120933333Y-114269048D01*
X120576190Y-114102381D01*
X121076190Y-114102381D01*
X120576190Y-113769047D02*
X120576190Y-113673809D01*
X120600000Y-113626190D01*
X120647619Y-113578571D01*
X120742857Y-113554762D01*
X120909524Y-113554762D01*
X121004762Y-113578571D01*
X121052381Y-113626190D01*
X121076190Y-113673809D01*
X121076190Y-113769047D01*
X121052381Y-113816666D01*
X121004762Y-113864285D01*
X120909524Y-113888095D01*
X120742857Y-113888095D01*
X120647619Y-113864285D01*
X120600000Y-113816666D01*
X120576190Y-113769047D01*
X121052381Y-113364285D02*
X121076190Y-113292856D01*
X121076190Y-113173809D01*
X121052381Y-113126190D01*
X121028571Y-113102380D01*
X120980952Y-113078571D01*
X120933333Y-113078571D01*
X120885714Y-113102380D01*
X120861905Y-113126190D01*
X120838095Y-113173809D01*
X120814286Y-113269047D01*
X120790476Y-113316666D01*
X120766667Y-113340475D01*
X120719048Y-113364285D01*
X120671429Y-113364285D01*
X120623810Y-113340475D01*
X120600000Y-113316666D01*
X120576190Y-113269047D01*
X120576190Y-113149999D01*
X120600000Y-113078571D01*
X121076190Y-112864285D02*
X120576190Y-112864285D01*
X109483333Y-82583333D02*
X109250000Y-81883333D01*
X109016667Y-82583333D01*
X108383333Y-81950000D02*
X108416667Y-81916667D01*
X108516667Y-81883333D01*
X108583333Y-81883333D01*
X108683333Y-81916667D01*
X108750000Y-81983333D01*
X108783333Y-82050000D01*
X108816667Y-82183333D01*
X108816667Y-82283333D01*
X108783333Y-82416667D01*
X108750000Y-82483333D01*
X108683333Y-82550000D01*
X108583333Y-82583333D01*
X108516667Y-82583333D01*
X108416667Y-82550000D01*
X108383333Y-82516667D01*
X107683333Y-81950000D02*
X107716667Y-81916667D01*
X107816667Y-81883333D01*
X107883333Y-81883333D01*
X107983333Y-81916667D01*
X108050000Y-81983333D01*
X108083333Y-82050000D01*
X108116667Y-82183333D01*
X108116667Y-82283333D01*
X108083333Y-82416667D01*
X108050000Y-82483333D01*
X107983333Y-82550000D01*
X107883333Y-82583333D01*
X107816667Y-82583333D01*
X107716667Y-82550000D01*
X107683333Y-82516667D01*
D12*
X100643750Y-97378571D02*
X100831250Y-95878571D01*
X101500893Y-97378571D02*
X100965178Y-96521429D01*
X101688393Y-95878571D02*
X100724107Y-96735714D01*
X102858036Y-97378571D02*
X102143750Y-97378571D01*
X102331250Y-95878571D01*
X103456250Y-96592857D02*
X103956250Y-96592857D01*
X104072322Y-97378571D02*
X103358036Y-97378571D01*
X103545536Y-95878571D01*
X104259822Y-95878571D01*
X104715179Y-97378571D02*
X104902679Y-95878571D01*
X105429465Y-97378571D02*
X105616965Y-95878571D01*
X106286608Y-97378571D01*
X106474108Y-95878571D01*
D10*
X86052381Y-124652381D02*
X85576190Y-124985715D01*
X86052381Y-125223810D02*
X85052381Y-125223810D01*
X85052381Y-124842857D01*
X85100000Y-124747619D01*
X85147619Y-124700000D01*
X85242857Y-124652381D01*
X85385714Y-124652381D01*
X85480952Y-124700000D01*
X85528571Y-124747619D01*
X85576190Y-124842857D01*
X85576190Y-125223810D01*
X85528571Y-124223810D02*
X85528571Y-123890476D01*
X86052381Y-123747619D02*
X86052381Y-124223810D01*
X85052381Y-124223810D01*
X85052381Y-123747619D01*
X86004762Y-123366667D02*
X86052381Y-123223810D01*
X86052381Y-122985714D01*
X86004762Y-122890476D01*
X85957143Y-122842857D01*
X85861905Y-122795238D01*
X85766667Y-122795238D01*
X85671429Y-122842857D01*
X85623810Y-122890476D01*
X85576190Y-122985714D01*
X85528571Y-123176191D01*
X85480952Y-123271429D01*
X85433333Y-123319048D01*
X85338095Y-123366667D01*
X85242857Y-123366667D01*
X85147619Y-123319048D01*
X85100000Y-123271429D01*
X85052381Y-123176191D01*
X85052381Y-122938095D01*
X85100000Y-122795238D01*
X85528571Y-122366667D02*
X85528571Y-122033333D01*
X86052381Y-121890476D02*
X86052381Y-122366667D01*
X85052381Y-122366667D01*
X85052381Y-121890476D01*
X85052381Y-121604762D02*
X85052381Y-121033333D01*
X86052381Y-121319048D02*
X85052381Y-121319048D01*
X86028571Y-90940476D02*
X86076190Y-90797619D01*
X86123810Y-90750000D01*
X86219048Y-90702381D01*
X86361905Y-90702381D01*
X86457143Y-90750000D01*
X86504762Y-90797619D01*
X86552381Y-90892857D01*
X86552381Y-91273810D01*
X85552381Y-91273810D01*
X85552381Y-90940476D01*
X85600000Y-90845238D01*
X85647619Y-90797619D01*
X85742857Y-90750000D01*
X85838095Y-90750000D01*
X85933333Y-90797619D01*
X85980952Y-90845238D01*
X86028571Y-90940476D01*
X86028571Y-91273810D01*
X85552381Y-90416667D02*
X85552381Y-89845238D01*
X86552381Y-90130953D02*
X85552381Y-90130953D01*
X86552381Y-89511905D02*
X85552381Y-89511905D01*
X86552381Y-88940476D01*
X85552381Y-88940476D01*
X86647619Y-88702381D02*
X86647619Y-87940476D01*
X86552381Y-87178571D02*
X86552381Y-87750000D01*
X86552381Y-87464286D02*
X85552381Y-87464286D01*
X85695238Y-87559524D01*
X85790476Y-87654762D01*
X85838095Y-87750000D01*
X86028571Y-100940476D02*
X86076190Y-100797619D01*
X86123810Y-100750000D01*
X86219048Y-100702381D01*
X86361905Y-100702381D01*
X86457143Y-100750000D01*
X86504762Y-100797619D01*
X86552381Y-100892857D01*
X86552381Y-101273810D01*
X85552381Y-101273810D01*
X85552381Y-100940476D01*
X85600000Y-100845238D01*
X85647619Y-100797619D01*
X85742857Y-100750000D01*
X85838095Y-100750000D01*
X85933333Y-100797619D01*
X85980952Y-100845238D01*
X86028571Y-100940476D01*
X86028571Y-101273810D01*
X85552381Y-100416667D02*
X85552381Y-99845238D01*
X86552381Y-100130953D02*
X85552381Y-100130953D01*
X86552381Y-99511905D02*
X85552381Y-99511905D01*
X86552381Y-98940476D01*
X85552381Y-98940476D01*
X86647619Y-98702381D02*
X86647619Y-97940476D01*
X85647619Y-97750000D02*
X85600000Y-97702381D01*
X85552381Y-97607143D01*
X85552381Y-97369047D01*
X85600000Y-97273809D01*
X85647619Y-97226190D01*
X85742857Y-97178571D01*
X85838095Y-97178571D01*
X85980952Y-97226190D01*
X86552381Y-97797619D01*
X86552381Y-97178571D01*
X85978571Y-110990476D02*
X86026190Y-110847619D01*
X86073810Y-110800000D01*
X86169048Y-110752381D01*
X86311905Y-110752381D01*
X86407143Y-110800000D01*
X86454762Y-110847619D01*
X86502381Y-110942857D01*
X86502381Y-111323810D01*
X85502381Y-111323810D01*
X85502381Y-110990476D01*
X85550000Y-110895238D01*
X85597619Y-110847619D01*
X85692857Y-110800000D01*
X85788095Y-110800000D01*
X85883333Y-110847619D01*
X85930952Y-110895238D01*
X85978571Y-110990476D01*
X85978571Y-111323810D01*
X85502381Y-110466667D02*
X85502381Y-109895238D01*
X86502381Y-110180953D02*
X85502381Y-110180953D01*
X86502381Y-109561905D02*
X85502381Y-109561905D01*
X86502381Y-108990476D01*
X85502381Y-108990476D01*
X86597619Y-108752381D02*
X86597619Y-107990476D01*
X85502381Y-107847619D02*
X85502381Y-107228571D01*
X85883333Y-107561905D01*
X85883333Y-107419047D01*
X85930952Y-107323809D01*
X85978571Y-107276190D01*
X86073810Y-107228571D01*
X86311905Y-107228571D01*
X86407143Y-107276190D01*
X86454762Y-107323809D01*
X86502381Y-107419047D01*
X86502381Y-107704762D01*
X86454762Y-107800000D01*
X86407143Y-107847619D01*
D11*
X115964286Y-118616667D02*
X115964286Y-117916667D01*
X116345239Y-117916667D01*
X116440477Y-117950000D01*
X116488096Y-117983333D01*
X116535715Y-118050000D01*
X116535715Y-118150000D01*
X116488096Y-118216667D01*
X116440477Y-118250000D01*
X116345239Y-118283333D01*
X115964286Y-118283333D01*
X117535715Y-118616667D02*
X117202381Y-118283333D01*
X116964286Y-118616667D02*
X116964286Y-117916667D01*
X117345239Y-117916667D01*
X117440477Y-117950000D01*
X117488096Y-117983333D01*
X117535715Y-118050000D01*
X117535715Y-118150000D01*
X117488096Y-118216667D01*
X117440477Y-118250000D01*
X117345239Y-118283333D01*
X116964286Y-118283333D01*
X118154762Y-117916667D02*
X118345239Y-117916667D01*
X118440477Y-117950000D01*
X118535715Y-118016667D01*
X118583334Y-118150000D01*
X118583334Y-118383333D01*
X118535715Y-118516667D01*
X118440477Y-118583333D01*
X118345239Y-118616667D01*
X118154762Y-118616667D01*
X118059524Y-118583333D01*
X117964286Y-118516667D01*
X117916667Y-118383333D01*
X117916667Y-118150000D01*
X117964286Y-118016667D01*
X118059524Y-117950000D01*
X118154762Y-117916667D01*
X119535715Y-117950000D02*
X119440477Y-117916667D01*
X119297620Y-117916667D01*
X119154762Y-117950000D01*
X119059524Y-118016667D01*
X119011905Y-118083333D01*
X118964286Y-118216667D01*
X118964286Y-118316667D01*
X119011905Y-118450000D01*
X119059524Y-118516667D01*
X119154762Y-118583333D01*
X119297620Y-118616667D01*
X119392858Y-118616667D01*
X119535715Y-118583333D01*
X119583334Y-118550000D01*
X119583334Y-118316667D01*
X119392858Y-118316667D01*
X117107143Y-120166667D02*
X116630952Y-120166667D01*
X116630952Y-119466667D01*
X117440476Y-119800000D02*
X117773810Y-119800000D01*
X117916667Y-120166667D02*
X117440476Y-120166667D01*
X117440476Y-119466667D01*
X117916667Y-119466667D01*
X118345238Y-120166667D02*
X118345238Y-119466667D01*
X118583333Y-119466667D01*
X118726191Y-119500000D01*
X118821429Y-119566667D01*
X118869048Y-119633333D01*
X118916667Y-119766667D01*
X118916667Y-119866667D01*
X118869048Y-120000000D01*
X118821429Y-120066667D01*
X118726191Y-120133333D01*
X118583333Y-120166667D01*
X118345238Y-120166667D01*
D10*
X108116667Y-121816667D02*
X108116667Y-122383333D01*
X108150000Y-122450000D01*
X108183333Y-122483333D01*
X108250000Y-122516667D01*
X108383333Y-122516667D01*
X108450000Y-122483333D01*
X108483333Y-122450000D01*
X108516667Y-122383333D01*
X108516667Y-121816667D01*
X108816666Y-122483333D02*
X108916666Y-122516667D01*
X109083333Y-122516667D01*
X109150000Y-122483333D01*
X109183333Y-122450000D01*
X109216666Y-122383333D01*
X109216666Y-122316667D01*
X109183333Y-122250000D01*
X109150000Y-122216667D01*
X109083333Y-122183333D01*
X108950000Y-122150000D01*
X108883333Y-122116667D01*
X108850000Y-122083333D01*
X108816666Y-122016667D01*
X108816666Y-121950000D01*
X108850000Y-121883333D01*
X108883333Y-121850000D01*
X108950000Y-121816667D01*
X109116666Y-121816667D01*
X109216666Y-121850000D01*
X109750000Y-122150000D02*
X109850000Y-122183333D01*
X109883333Y-122216667D01*
X109916667Y-122283333D01*
X109916667Y-122383333D01*
X109883333Y-122450000D01*
X109850000Y-122483333D01*
X109783333Y-122516667D01*
X109516667Y-122516667D01*
X109516667Y-121816667D01*
X109750000Y-121816667D01*
X109816667Y-121850000D01*
X109850000Y-121883333D01*
X109883333Y-121950000D01*
X109883333Y-122016667D01*
X109850000Y-122083333D01*
X109816667Y-122116667D01*
X109750000Y-122150000D01*
X109516667Y-122150000D01*
D12*
X114107143Y-127092857D02*
X114321429Y-127164286D01*
X114392857Y-127235714D01*
X114464286Y-127378571D01*
X114464286Y-127592857D01*
X114392857Y-127735714D01*
X114321429Y-127807143D01*
X114178571Y-127878571D01*
X113607143Y-127878571D01*
X113607143Y-126378571D01*
X114107143Y-126378571D01*
X114250000Y-126450000D01*
X114321429Y-126521429D01*
X114392857Y-126664286D01*
X114392857Y-126807143D01*
X114321429Y-126950000D01*
X114250000Y-127021429D01*
X114107143Y-127092857D01*
X113607143Y-127092857D01*
X114392857Y-123850000D02*
X114250000Y-123778571D01*
X114035714Y-123778571D01*
X113821429Y-123850000D01*
X113678571Y-123992857D01*
X113607143Y-124135714D01*
X113535714Y-124421429D01*
X113535714Y-124635714D01*
X113607143Y-124921429D01*
X113678571Y-125064286D01*
X113821429Y-125207143D01*
X114035714Y-125278571D01*
X114178571Y-125278571D01*
X114392857Y-125207143D01*
X114464286Y-125135714D01*
X114464286Y-124635714D01*
X114178571Y-124635714D01*
X114464286Y-122728571D02*
X113964286Y-122014286D01*
X113607143Y-122728571D02*
X113607143Y-121228571D01*
X114178571Y-121228571D01*
X114321429Y-121300000D01*
X114392857Y-121371429D01*
X114464286Y-121514286D01*
X114464286Y-121728571D01*
X114392857Y-121871429D01*
X114321429Y-121942857D01*
X114178571Y-122014286D01*
X113607143Y-122014286D01*
D10*
X114502381Y-114292857D02*
X114526190Y-114221428D01*
X114526190Y-114102381D01*
X114502381Y-114054762D01*
X114478571Y-114030952D01*
X114430952Y-114007143D01*
X114383333Y-114007143D01*
X114335714Y-114030952D01*
X114311905Y-114054762D01*
X114288095Y-114102381D01*
X114264286Y-114197619D01*
X114240476Y-114245238D01*
X114216667Y-114269047D01*
X114169048Y-114292857D01*
X114121429Y-114292857D01*
X114073810Y-114269047D01*
X114050000Y-114245238D01*
X114026190Y-114197619D01*
X114026190Y-114078571D01*
X114050000Y-114007143D01*
X114478571Y-113507143D02*
X114502381Y-113530953D01*
X114526190Y-113602381D01*
X114526190Y-113650000D01*
X114502381Y-113721429D01*
X114454762Y-113769048D01*
X114407143Y-113792857D01*
X114311905Y-113816667D01*
X114240476Y-113816667D01*
X114145238Y-113792857D01*
X114097619Y-113769048D01*
X114050000Y-113721429D01*
X114026190Y-113650000D01*
X114026190Y-113602381D01*
X114050000Y-113530953D01*
X114073810Y-113507143D01*
X114526190Y-113292857D02*
X114026190Y-113292857D01*
X114526190Y-113007143D02*
X114240476Y-113221429D01*
X114026190Y-113007143D02*
X114311905Y-113292857D01*
X120626190Y-111866666D02*
X121126190Y-111699999D01*
X120626190Y-111533333D01*
X121078571Y-111080952D02*
X121102381Y-111104762D01*
X121126190Y-111176190D01*
X121126190Y-111223809D01*
X121102381Y-111295238D01*
X121054762Y-111342857D01*
X121007143Y-111366666D01*
X120911905Y-111390476D01*
X120840476Y-111390476D01*
X120745238Y-111366666D01*
X120697619Y-111342857D01*
X120650000Y-111295238D01*
X120626190Y-111223809D01*
X120626190Y-111176190D01*
X120650000Y-111104762D01*
X120673810Y-111080952D01*
X121078571Y-110580952D02*
X121102381Y-110604762D01*
X121126190Y-110676190D01*
X121126190Y-110723809D01*
X121102381Y-110795238D01*
X121054762Y-110842857D01*
X121007143Y-110866666D01*
X120911905Y-110890476D01*
X120840476Y-110890476D01*
X120745238Y-110866666D01*
X120697619Y-110842857D01*
X120650000Y-110795238D01*
X120626190Y-110723809D01*
X120626190Y-110676190D01*
X120650000Y-110604762D01*
X120673810Y-110580952D01*
X114976190Y-111885714D02*
X114476190Y-111885714D01*
X114833333Y-111719048D01*
X114476190Y-111552381D01*
X114976190Y-111552381D01*
X114976190Y-111314285D02*
X114476190Y-111314285D01*
X114952381Y-111100000D02*
X114976190Y-111028571D01*
X114976190Y-110909524D01*
X114952381Y-110861905D01*
X114928571Y-110838095D01*
X114880952Y-110814286D01*
X114833333Y-110814286D01*
X114785714Y-110838095D01*
X114761905Y-110861905D01*
X114738095Y-110909524D01*
X114714286Y-111004762D01*
X114690476Y-111052381D01*
X114666667Y-111076190D01*
X114619048Y-111100000D01*
X114571429Y-111100000D01*
X114523810Y-111076190D01*
X114500000Y-111052381D01*
X114476190Y-111004762D01*
X114476190Y-110885714D01*
X114500000Y-110814286D01*
X114476190Y-110504762D02*
X114476190Y-110409524D01*
X114500000Y-110361905D01*
X114547619Y-110314286D01*
X114642857Y-110290477D01*
X114809524Y-110290477D01*
X114904762Y-110314286D01*
X114952381Y-110361905D01*
X114976190Y-110409524D01*
X114976190Y-110504762D01*
X114952381Y-110552381D01*
X114904762Y-110600000D01*
X114809524Y-110623810D01*
X114642857Y-110623810D01*
X114547619Y-110600000D01*
X114500000Y-110552381D01*
X114476190Y-110504762D01*
X114926190Y-117076190D02*
X114688095Y-117242857D01*
X114926190Y-117361904D02*
X114426190Y-117361904D01*
X114426190Y-117171428D01*
X114450000Y-117123809D01*
X114473810Y-117100000D01*
X114521429Y-117076190D01*
X114592857Y-117076190D01*
X114640476Y-117100000D01*
X114664286Y-117123809D01*
X114688095Y-117171428D01*
X114688095Y-117361904D01*
X114664286Y-116861904D02*
X114664286Y-116695238D01*
X114926190Y-116623809D02*
X114926190Y-116861904D01*
X114426190Y-116861904D01*
X114426190Y-116623809D01*
X114902381Y-116433333D02*
X114926190Y-116361904D01*
X114926190Y-116242857D01*
X114902381Y-116195238D01*
X114878571Y-116171428D01*
X114830952Y-116147619D01*
X114783333Y-116147619D01*
X114735714Y-116171428D01*
X114711905Y-116195238D01*
X114688095Y-116242857D01*
X114664286Y-116338095D01*
X114640476Y-116385714D01*
X114616667Y-116409523D01*
X114569048Y-116433333D01*
X114521429Y-116433333D01*
X114473810Y-116409523D01*
X114450000Y-116385714D01*
X114426190Y-116338095D01*
X114426190Y-116219047D01*
X114450000Y-116147619D01*
X114664286Y-115933333D02*
X114664286Y-115766667D01*
X114926190Y-115695238D02*
X114926190Y-115933333D01*
X114426190Y-115933333D01*
X114426190Y-115695238D01*
X114426190Y-115552381D02*
X114426190Y-115266667D01*
X114926190Y-115409524D02*
X114426190Y-115409524D01*
X120700000Y-116630953D02*
X120676190Y-116678572D01*
X120676190Y-116750000D01*
X120700000Y-116821429D01*
X120747619Y-116869048D01*
X120795238Y-116892857D01*
X120890476Y-116916667D01*
X120961905Y-116916667D01*
X121057143Y-116892857D01*
X121104762Y-116869048D01*
X121152381Y-116821429D01*
X121176190Y-116750000D01*
X121176190Y-116702381D01*
X121152381Y-116630953D01*
X121128571Y-116607143D01*
X120961905Y-116607143D01*
X120961905Y-116702381D01*
X121176190Y-116392857D02*
X120676190Y-116392857D01*
X121176190Y-116107143D01*
X120676190Y-116107143D01*
X121176190Y-115869047D02*
X120676190Y-115869047D01*
X120676190Y-115750000D01*
X120700000Y-115678571D01*
X120747619Y-115630952D01*
X120795238Y-115607143D01*
X120890476Y-115583333D01*
X120961905Y-115583333D01*
X121057143Y-115607143D01*
X121104762Y-115630952D01*
X121152381Y-115678571D01*
X121176190Y-115750000D01*
X121176190Y-115869047D01*
X117992858Y-108166667D02*
X118230953Y-108166667D01*
X117945239Y-108366667D02*
X118111906Y-107666667D01*
X118278572Y-108366667D01*
X118445239Y-108366667D02*
X118445239Y-107666667D01*
X118564286Y-107666667D01*
X118635715Y-107700000D01*
X118683334Y-107766667D01*
X118707143Y-107833333D01*
X118730953Y-107966667D01*
X118730953Y-108066667D01*
X118707143Y-108200000D01*
X118683334Y-108266667D01*
X118635715Y-108333333D01*
X118564286Y-108366667D01*
X118445239Y-108366667D01*
X119230953Y-108300000D02*
X119207143Y-108333333D01*
X119135715Y-108366667D01*
X119088096Y-108366667D01*
X119016667Y-108333333D01*
X118969048Y-108266667D01*
X118945239Y-108200000D01*
X118921429Y-108066667D01*
X118921429Y-107966667D01*
X118945239Y-107833333D01*
X118969048Y-107766667D01*
X119016667Y-107700000D01*
X119088096Y-107666667D01*
X119135715Y-107666667D01*
X119207143Y-107700000D01*
X119230953Y-107733333D01*
X119659524Y-107666667D02*
X119564286Y-107666667D01*
X119516667Y-107700000D01*
X119492858Y-107733333D01*
X119445239Y-107833333D01*
X119421429Y-107966667D01*
X119421429Y-108233333D01*
X119445239Y-108300000D01*
X119469048Y-108333333D01*
X119516667Y-108366667D01*
X119611905Y-108366667D01*
X119659524Y-108333333D01*
X119683334Y-108300000D01*
X119707143Y-108233333D01*
X119707143Y-108066667D01*
X119683334Y-108000000D01*
X119659524Y-107966667D01*
X119611905Y-107933333D01*
X119516667Y-107933333D01*
X119469048Y-107966667D01*
X119445239Y-108000000D01*
X119421429Y-108066667D01*
X115342858Y-108166667D02*
X115580953Y-108166667D01*
X115295239Y-108366667D02*
X115461906Y-107666667D01*
X115628572Y-108366667D01*
X115795239Y-108366667D02*
X115795239Y-107666667D01*
X115914286Y-107666667D01*
X115985715Y-107700000D01*
X116033334Y-107766667D01*
X116057143Y-107833333D01*
X116080953Y-107966667D01*
X116080953Y-108066667D01*
X116057143Y-108200000D01*
X116033334Y-108266667D01*
X115985715Y-108333333D01*
X115914286Y-108366667D01*
X115795239Y-108366667D01*
X116580953Y-108300000D02*
X116557143Y-108333333D01*
X116485715Y-108366667D01*
X116438096Y-108366667D01*
X116366667Y-108333333D01*
X116319048Y-108266667D01*
X116295239Y-108200000D01*
X116271429Y-108066667D01*
X116271429Y-107966667D01*
X116295239Y-107833333D01*
X116319048Y-107766667D01*
X116366667Y-107700000D01*
X116438096Y-107666667D01*
X116485715Y-107666667D01*
X116557143Y-107700000D01*
X116580953Y-107733333D01*
X116747620Y-107666667D02*
X117080953Y-107666667D01*
X116866667Y-108366667D01*
D11*
X115200000Y-91850000D02*
X120350000Y-91850000D01*
X115200000Y-94400000D02*
X120350000Y-94400000D01*
X115200000Y-99550000D02*
X120350000Y-99550000D01*
D10*
X117116667Y-102500000D02*
X117050001Y-102466667D01*
X116950001Y-102466667D01*
X116850001Y-102500000D01*
X116783334Y-102566667D01*
X116750001Y-102633333D01*
X116716667Y-102766667D01*
X116716667Y-102866667D01*
X116750001Y-103000000D01*
X116783334Y-103066667D01*
X116850001Y-103133333D01*
X116950001Y-103166667D01*
X117016667Y-103166667D01*
X117116667Y-103133333D01*
X117150001Y-103100000D01*
X117150001Y-102866667D01*
X117016667Y-102866667D01*
X117450001Y-103166667D02*
X117450001Y-102466667D01*
X117850001Y-103166667D01*
X117850001Y-102466667D01*
X118183334Y-103166667D02*
X118183334Y-102466667D01*
X118350000Y-102466667D01*
X118450000Y-102500000D01*
X118516667Y-102566667D01*
X118550000Y-102633333D01*
X118583334Y-102766667D01*
X118583334Y-102866667D01*
X118550000Y-103000000D01*
X118516667Y-103066667D01*
X118450000Y-103133333D01*
X118350000Y-103166667D01*
X118183334Y-103166667D01*
X110433334Y-98566667D02*
X110433334Y-97866667D01*
X110700000Y-97866667D01*
X110766667Y-97900000D01*
X110800000Y-97933333D01*
X110833334Y-98000000D01*
X110833334Y-98100000D01*
X110800000Y-98166667D01*
X110766667Y-98200000D01*
X110700000Y-98233333D01*
X110433334Y-98233333D01*
X111533334Y-98500000D02*
X111500000Y-98533333D01*
X111400000Y-98566667D01*
X111333334Y-98566667D01*
X111233334Y-98533333D01*
X111166667Y-98466667D01*
X111133334Y-98400000D01*
X111100000Y-98266667D01*
X111100000Y-98166667D01*
X111133334Y-98033333D01*
X111166667Y-97966667D01*
X111233334Y-97900000D01*
X111333334Y-97866667D01*
X111400000Y-97866667D01*
X111500000Y-97900000D01*
X111533334Y-97933333D01*
X112200000Y-98566667D02*
X111800000Y-98566667D01*
X112000000Y-98566667D02*
X112000000Y-97866667D01*
X111933334Y-97966667D01*
X111866667Y-98033333D01*
X111800000Y-98066667D01*
X113083334Y-98566667D02*
X113083334Y-97866667D01*
X113350000Y-97866667D01*
X113416667Y-97900000D01*
X113450000Y-97933333D01*
X113483334Y-98000000D01*
X113483334Y-98100000D01*
X113450000Y-98166667D01*
X113416667Y-98200000D01*
X113350000Y-98233333D01*
X113083334Y-98233333D01*
X114183334Y-98500000D02*
X114150000Y-98533333D01*
X114050000Y-98566667D01*
X113983334Y-98566667D01*
X113883334Y-98533333D01*
X113816667Y-98466667D01*
X113783334Y-98400000D01*
X113750000Y-98266667D01*
X113750000Y-98166667D01*
X113783334Y-98033333D01*
X113816667Y-97966667D01*
X113883334Y-97900000D01*
X113983334Y-97866667D01*
X114050000Y-97866667D01*
X114150000Y-97900000D01*
X114183334Y-97933333D01*
X114616667Y-97866667D02*
X114683334Y-97866667D01*
X114750000Y-97900000D01*
X114783334Y-97933333D01*
X114816667Y-98000000D01*
X114850000Y-98133333D01*
X114850000Y-98300000D01*
X114816667Y-98433333D01*
X114783334Y-98500000D01*
X114750000Y-98533333D01*
X114683334Y-98566667D01*
X114616667Y-98566667D01*
X114550000Y-98533333D01*
X114516667Y-98500000D01*
X114483334Y-98433333D01*
X114450000Y-98300000D01*
X114450000Y-98133333D01*
X114483334Y-98000000D01*
X114516667Y-97933333D01*
X114550000Y-97900000D01*
X114616667Y-97866667D01*
X110383334Y-96016667D02*
X110383334Y-95316667D01*
X110650000Y-95316667D01*
X110716667Y-95350000D01*
X110750000Y-95383333D01*
X110783334Y-95450000D01*
X110783334Y-95550000D01*
X110750000Y-95616667D01*
X110716667Y-95650000D01*
X110650000Y-95683333D01*
X110383334Y-95683333D01*
X111483334Y-95950000D02*
X111450000Y-95983333D01*
X111350000Y-96016667D01*
X111283334Y-96016667D01*
X111183334Y-95983333D01*
X111116667Y-95916667D01*
X111083334Y-95850000D01*
X111050000Y-95716667D01*
X111050000Y-95616667D01*
X111083334Y-95483333D01*
X111116667Y-95416667D01*
X111183334Y-95350000D01*
X111283334Y-95316667D01*
X111350000Y-95316667D01*
X111450000Y-95350000D01*
X111483334Y-95383333D01*
X111716667Y-95316667D02*
X112150000Y-95316667D01*
X111916667Y-95583333D01*
X112016667Y-95583333D01*
X112083334Y-95616667D01*
X112116667Y-95650000D01*
X112150000Y-95716667D01*
X112150000Y-95883333D01*
X112116667Y-95950000D01*
X112083334Y-95983333D01*
X112016667Y-96016667D01*
X111816667Y-96016667D01*
X111750000Y-95983333D01*
X111716667Y-95950000D01*
X113083334Y-95966667D02*
X113083334Y-95266667D01*
X113350000Y-95266667D01*
X113416667Y-95300000D01*
X113450000Y-95333333D01*
X113483334Y-95400000D01*
X113483334Y-95500000D01*
X113450000Y-95566667D01*
X113416667Y-95600000D01*
X113350000Y-95633333D01*
X113083334Y-95633333D01*
X114183334Y-95900000D02*
X114150000Y-95933333D01*
X114050000Y-95966667D01*
X113983334Y-95966667D01*
X113883334Y-95933333D01*
X113816667Y-95866667D01*
X113783334Y-95800000D01*
X113750000Y-95666667D01*
X113750000Y-95566667D01*
X113783334Y-95433333D01*
X113816667Y-95366667D01*
X113883334Y-95300000D01*
X113983334Y-95266667D01*
X114050000Y-95266667D01*
X114150000Y-95300000D01*
X114183334Y-95333333D01*
X114450000Y-95333333D02*
X114483334Y-95300000D01*
X114550000Y-95266667D01*
X114716667Y-95266667D01*
X114783334Y-95300000D01*
X114816667Y-95333333D01*
X114850000Y-95400000D01*
X114850000Y-95466667D01*
X114816667Y-95566667D01*
X114416667Y-95966667D01*
X114850000Y-95966667D01*
X114216667Y-93283333D02*
X114216667Y-93616666D01*
X114550000Y-93650000D01*
X114516667Y-93616666D01*
X114483333Y-93550000D01*
X114483333Y-93383333D01*
X114516667Y-93316666D01*
X114550000Y-93283333D01*
X114616667Y-93250000D01*
X114783333Y-93250000D01*
X114850000Y-93283333D01*
X114883333Y-93316666D01*
X114916667Y-93383333D01*
X114916667Y-93550000D01*
X114883333Y-93616666D01*
X114850000Y-93650000D01*
X114216667Y-93049999D02*
X114916667Y-92816666D01*
X114216667Y-92583333D01*
X114216667Y-91433333D02*
X114216667Y-91000000D01*
X114483333Y-91233333D01*
X114483333Y-91133333D01*
X114516667Y-91066666D01*
X114550000Y-91033333D01*
X114616667Y-91000000D01*
X114783333Y-91000000D01*
X114850000Y-91033333D01*
X114883333Y-91066666D01*
X114916667Y-91133333D01*
X114916667Y-91333333D01*
X114883333Y-91400000D01*
X114850000Y-91433333D01*
X114850000Y-90699999D02*
X114883333Y-90666666D01*
X114916667Y-90699999D01*
X114883333Y-90733333D01*
X114850000Y-90699999D01*
X114916667Y-90699999D01*
X114216667Y-90433333D02*
X114216667Y-90000000D01*
X114483333Y-90233333D01*
X114483333Y-90133333D01*
X114516667Y-90066666D01*
X114550000Y-90033333D01*
X114616667Y-90000000D01*
X114783333Y-90000000D01*
X114850000Y-90033333D01*
X114883333Y-90066666D01*
X114916667Y-90133333D01*
X114916667Y-90333333D01*
X114883333Y-90400000D01*
X114850000Y-90433333D01*
X114216667Y-89799999D02*
X114916667Y-89566666D01*
X114216667Y-89333333D01*
X100733334Y-94416667D02*
X100500000Y-94083333D01*
X100333334Y-94416667D02*
X100333334Y-93716667D01*
X100600000Y-93716667D01*
X100666667Y-93750000D01*
X100700000Y-93783333D01*
X100733334Y-93850000D01*
X100733334Y-93950000D01*
X100700000Y-94016667D01*
X100666667Y-94050000D01*
X100600000Y-94083333D01*
X100333334Y-94083333D01*
X100966667Y-93716667D02*
X101433334Y-94416667D01*
X101433334Y-93716667D02*
X100966667Y-94416667D01*
X95183334Y-94416667D02*
X95183334Y-93716667D01*
X95416667Y-94216667D01*
X95650000Y-93716667D01*
X95650000Y-94416667D01*
X96116667Y-93716667D02*
X96183334Y-93716667D01*
X96250000Y-93750000D01*
X96283334Y-93783333D01*
X96316667Y-93850000D01*
X96350000Y-93983333D01*
X96350000Y-94150000D01*
X96316667Y-94283333D01*
X96283334Y-94350000D01*
X96250000Y-94383333D01*
X96183334Y-94416667D01*
X96116667Y-94416667D01*
X96050000Y-94383333D01*
X96016667Y-94350000D01*
X95983334Y-94283333D01*
X95950000Y-94150000D01*
X95950000Y-93983333D01*
X95983334Y-93850000D01*
X96016667Y-93783333D01*
X96050000Y-93750000D01*
X96116667Y-93716667D01*
X97783334Y-94416667D02*
X97783334Y-93716667D01*
X98016667Y-94216667D01*
X98250000Y-93716667D01*
X98250000Y-94416667D01*
X98950000Y-94416667D02*
X98550000Y-94416667D01*
X98750000Y-94416667D02*
X98750000Y-93716667D01*
X98683334Y-93816667D01*
X98616667Y-93883333D01*
X98550000Y-93916667D01*
X110566667Y-93700000D02*
X110500001Y-93666667D01*
X110400001Y-93666667D01*
X110300001Y-93700000D01*
X110233334Y-93766667D01*
X110200001Y-93833333D01*
X110166667Y-93966667D01*
X110166667Y-94066667D01*
X110200001Y-94200000D01*
X110233334Y-94266667D01*
X110300001Y-94333333D01*
X110400001Y-94366667D01*
X110466667Y-94366667D01*
X110566667Y-94333333D01*
X110600001Y-94300000D01*
X110600001Y-94066667D01*
X110466667Y-94066667D01*
X110900001Y-94366667D02*
X110900001Y-93666667D01*
X111300001Y-94366667D01*
X111300001Y-93666667D01*
X111633334Y-94366667D02*
X111633334Y-93666667D01*
X111800000Y-93666667D01*
X111900000Y-93700000D01*
X111966667Y-93766667D01*
X112000000Y-93833333D01*
X112033334Y-93966667D01*
X112033334Y-94066667D01*
X112000000Y-94200000D01*
X111966667Y-94266667D01*
X111900000Y-94333333D01*
X111800000Y-94366667D01*
X111633334Y-94366667D01*
X107516667Y-93666667D02*
X107750000Y-94366667D01*
X107983333Y-93666667D01*
X108616667Y-94300000D02*
X108583333Y-94333333D01*
X108483333Y-94366667D01*
X108416667Y-94366667D01*
X108316667Y-94333333D01*
X108250000Y-94266667D01*
X108216667Y-94200000D01*
X108183333Y-94066667D01*
X108183333Y-93966667D01*
X108216667Y-93833333D01*
X108250000Y-93766667D01*
X108316667Y-93700000D01*
X108416667Y-93666667D01*
X108483333Y-93666667D01*
X108583333Y-93700000D01*
X108616667Y-93733333D01*
X109316667Y-94300000D02*
X109283333Y-94333333D01*
X109183333Y-94366667D01*
X109116667Y-94366667D01*
X109016667Y-94333333D01*
X108950000Y-94266667D01*
X108916667Y-94200000D01*
X108883333Y-94066667D01*
X108883333Y-93966667D01*
X108916667Y-93833333D01*
X108950000Y-93766667D01*
X109016667Y-93700000D01*
X109116667Y-93666667D01*
X109183333Y-93666667D01*
X109283333Y-93700000D01*
X109316667Y-93733333D01*
X102816667Y-93666667D02*
X103216667Y-93666667D01*
X103016667Y-94366667D02*
X103016667Y-93666667D01*
X103383333Y-93666667D02*
X103850000Y-94366667D01*
X103850000Y-93666667D02*
X103383333Y-94366667D01*
X105083333Y-94166667D02*
X105416667Y-94166667D01*
X105016667Y-94366667D02*
X105250000Y-93666667D01*
X105483333Y-94366667D01*
X105716667Y-93666667D02*
X105716667Y-94233333D01*
X105750000Y-94300000D01*
X105783333Y-94333333D01*
X105850000Y-94366667D01*
X105983333Y-94366667D01*
X106050000Y-94333333D01*
X106083333Y-94300000D01*
X106116667Y-94233333D01*
X106116667Y-93666667D01*
X106383333Y-93666667D02*
X106850000Y-94366667D01*
X106850000Y-93666667D02*
X106383333Y-94366667D01*
X100066667Y-86166667D02*
X100500000Y-86166667D01*
X100266667Y-86433333D01*
X100366667Y-86433333D01*
X100433334Y-86466667D01*
X100466667Y-86500000D01*
X100500000Y-86566667D01*
X100500000Y-86733333D01*
X100466667Y-86800000D01*
X100433334Y-86833333D01*
X100366667Y-86866667D01*
X100166667Y-86866667D01*
X100100000Y-86833333D01*
X100066667Y-86800000D01*
X100800001Y-86800000D02*
X100833334Y-86833333D01*
X100800001Y-86866667D01*
X100766667Y-86833333D01*
X100800001Y-86800000D01*
X100800001Y-86866667D01*
X101066667Y-86166667D02*
X101500000Y-86166667D01*
X101266667Y-86433333D01*
X101366667Y-86433333D01*
X101433334Y-86466667D01*
X101466667Y-86500000D01*
X101500000Y-86566667D01*
X101500000Y-86733333D01*
X101466667Y-86800000D01*
X101433334Y-86833333D01*
X101366667Y-86866667D01*
X101166667Y-86866667D01*
X101100000Y-86833333D01*
X101066667Y-86800000D01*
X101700001Y-86166667D02*
X101933334Y-86866667D01*
X102166667Y-86166667D01*
X95816667Y-86166667D02*
X95483334Y-86166667D01*
X95450000Y-86500000D01*
X95483334Y-86466667D01*
X95550000Y-86433333D01*
X95716667Y-86433333D01*
X95783334Y-86466667D01*
X95816667Y-86500000D01*
X95850000Y-86566667D01*
X95850000Y-86733333D01*
X95816667Y-86800000D01*
X95783334Y-86833333D01*
X95716667Y-86866667D01*
X95550000Y-86866667D01*
X95483334Y-86833333D01*
X95450000Y-86800000D01*
X96050001Y-86166667D02*
X96283334Y-86866667D01*
X96516667Y-86166667D01*
X106333333Y-89733333D02*
X106666666Y-89733333D01*
X106700000Y-89400000D01*
X106666666Y-89433333D01*
X106600000Y-89466667D01*
X106433333Y-89466667D01*
X106366666Y-89433333D01*
X106333333Y-89400000D01*
X106300000Y-89333333D01*
X106300000Y-89166667D01*
X106333333Y-89100000D01*
X106366666Y-89066667D01*
X106433333Y-89033333D01*
X106600000Y-89033333D01*
X106666666Y-89066667D01*
X106700000Y-89100000D01*
X106099999Y-89733333D02*
X105866666Y-89033333D01*
X105633333Y-89733333D01*
X112283333Y-89733333D02*
X111850000Y-89733333D01*
X112083333Y-89466667D01*
X111983333Y-89466667D01*
X111916666Y-89433333D01*
X111883333Y-89400000D01*
X111850000Y-89333333D01*
X111850000Y-89166667D01*
X111883333Y-89100000D01*
X111916666Y-89066667D01*
X111983333Y-89033333D01*
X112183333Y-89033333D01*
X112250000Y-89066667D01*
X112283333Y-89100000D01*
X111549999Y-89100000D02*
X111516666Y-89066667D01*
X111549999Y-89033333D01*
X111583333Y-89066667D01*
X111549999Y-89100000D01*
X111549999Y-89033333D01*
X111283333Y-89733333D02*
X110850000Y-89733333D01*
X111083333Y-89466667D01*
X110983333Y-89466667D01*
X110916666Y-89433333D01*
X110883333Y-89400000D01*
X110850000Y-89333333D01*
X110850000Y-89166667D01*
X110883333Y-89100000D01*
X110916666Y-89066667D01*
X110983333Y-89033333D01*
X111183333Y-89033333D01*
X111250000Y-89066667D01*
X111283333Y-89100000D01*
X110649999Y-89733333D02*
X110416666Y-89033333D01*
X110183333Y-89733333D01*
X106583333Y-82550000D02*
X106649999Y-82583333D01*
X106749999Y-82583333D01*
X106849999Y-82550000D01*
X106916666Y-82483333D01*
X106949999Y-82416667D01*
X106983333Y-82283333D01*
X106983333Y-82183333D01*
X106949999Y-82050000D01*
X106916666Y-81983333D01*
X106849999Y-81916667D01*
X106749999Y-81883333D01*
X106683333Y-81883333D01*
X106583333Y-81916667D01*
X106549999Y-81950000D01*
X106549999Y-82183333D01*
X106683333Y-82183333D01*
X106249999Y-81883333D02*
X106249999Y-82583333D01*
X105849999Y-81883333D01*
X105849999Y-82583333D01*
X105516666Y-81883333D02*
X105516666Y-82583333D01*
X105350000Y-82583333D01*
X105250000Y-82550000D01*
X105183333Y-82483333D01*
X105150000Y-82416667D01*
X105116666Y-82283333D01*
X105116666Y-82183333D01*
X105150000Y-82050000D01*
X105183333Y-81983333D01*
X105250000Y-81916667D01*
X105350000Y-81883333D01*
X105516666Y-81883333D01*
X111933334Y-81916667D02*
X111833334Y-81883333D01*
X111666667Y-81883333D01*
X111600000Y-81916667D01*
X111566667Y-81950000D01*
X111533334Y-82016667D01*
X111533334Y-82083333D01*
X111566667Y-82150000D01*
X111600000Y-82183333D01*
X111666667Y-82216667D01*
X111800000Y-82250000D01*
X111866667Y-82283333D01*
X111900000Y-82316667D01*
X111933334Y-82383333D01*
X111933334Y-82450000D01*
X111900000Y-82516667D01*
X111866667Y-82550000D01*
X111800000Y-82583333D01*
X111633334Y-82583333D01*
X111533334Y-82550000D01*
X110833333Y-81950000D02*
X110866667Y-81916667D01*
X110966667Y-81883333D01*
X111033333Y-81883333D01*
X111133333Y-81916667D01*
X111200000Y-81983333D01*
X111233333Y-82050000D01*
X111266667Y-82183333D01*
X111266667Y-82283333D01*
X111233333Y-82416667D01*
X111200000Y-82483333D01*
X111133333Y-82550000D01*
X111033333Y-82583333D01*
X110966667Y-82583333D01*
X110866667Y-82550000D01*
X110833333Y-82516667D01*
X110200000Y-81883333D02*
X110533333Y-81883333D01*
X110533333Y-82583333D01*
X114550000Y-81916667D02*
X114450000Y-81883333D01*
X114283333Y-81883333D01*
X114216666Y-81916667D01*
X114183333Y-81950000D01*
X114150000Y-82016667D01*
X114150000Y-82083333D01*
X114183333Y-82150000D01*
X114216666Y-82183333D01*
X114283333Y-82216667D01*
X114416666Y-82250000D01*
X114483333Y-82283333D01*
X114516666Y-82316667D01*
X114550000Y-82383333D01*
X114550000Y-82450000D01*
X114516666Y-82516667D01*
X114483333Y-82550000D01*
X114416666Y-82583333D01*
X114250000Y-82583333D01*
X114150000Y-82550000D01*
X113849999Y-81883333D02*
X113849999Y-82583333D01*
X113683333Y-82583333D01*
X113583333Y-82550000D01*
X113516666Y-82483333D01*
X113483333Y-82416667D01*
X113449999Y-82283333D01*
X113449999Y-82183333D01*
X113483333Y-82050000D01*
X113516666Y-81983333D01*
X113583333Y-81916667D01*
X113683333Y-81883333D01*
X113849999Y-81883333D01*
X113183333Y-82083333D02*
X112849999Y-82083333D01*
X113249999Y-81883333D02*
X113016666Y-82583333D01*
X112783333Y-81883333D01*
D11*
X108450000Y-85550000D02*
X108450000Y-86100000D01*
X108750000Y-86100000D02*
X108750000Y-85600000D01*
X108550000Y-85600000D02*
X108550000Y-86100000D01*
X108650000Y-86100000D02*
X108550000Y-85600000D01*
X108650000Y-85550000D02*
X108650000Y-86100000D01*
D13*
X104730000Y-82870000D02*
X104730000Y-85530000D01*
X114930240Y-82870000D02*
X104730000Y-82870000D01*
X114931960Y-85530000D02*
X104730000Y-85530000D01*
X114950000Y-82870000D02*
X114950000Y-85530000D01*
X120120000Y-107330000D02*
X120120000Y-104670000D01*
X117520000Y-107330000D02*
X120120000Y-107330000D01*
X117520000Y-104670000D02*
X120120000Y-104670000D01*
X117520000Y-107330000D02*
X117520000Y-104670000D01*
X116250000Y-107330000D02*
X114920000Y-107330000D01*
X114920000Y-107330000D02*
X114920000Y-106000000D01*
X115160000Y-124650000D02*
X115160000Y-123320000D01*
X115170000Y-122000000D02*
X115170000Y-120670000D01*
X115160000Y-123320000D02*
X116490000Y-123320000D01*
X115170000Y-125810000D02*
X116500000Y-125810000D01*
X115170000Y-127140000D02*
X115170000Y-125810000D01*
X115170000Y-120670000D02*
X116500000Y-120670000D01*
X117770000Y-128410000D02*
X117770000Y-120670000D01*
X117770000Y-120670000D02*
X120370000Y-120670000D01*
X120370000Y-120670000D02*
X120370000Y-128410000D01*
X117769981Y-128410000D02*
X120370000Y-128410000D01*
X112511277Y-86170000D02*
X112511277Y-88830000D01*
X112510006Y-86170000D02*
X104840000Y-86170000D01*
X112511277Y-88830000D02*
X104840000Y-88830000D01*
X104840000Y-86170000D02*
X104840000Y-88830000D01*
X112511277Y-86170000D02*
X112511277Y-88830000D01*
X112510006Y-86170000D02*
X104840000Y-86170000D01*
X112511277Y-88830000D02*
X104840000Y-88830000D01*
X104840000Y-86170000D02*
X104840000Y-88830000D01*
X94590000Y-87170000D02*
X94590000Y-89830000D01*
X102270000Y-87170000D02*
X94590000Y-87170000D01*
X102270319Y-89830000D02*
X94590000Y-89830000D01*
X102270000Y-87170000D02*
X102270000Y-89820000D01*
X115170000Y-117580000D02*
X120370000Y-117580000D01*
X120370000Y-109840000D02*
X120370000Y-117580000D01*
X114840000Y-112410000D02*
X115190000Y-112410000D01*
X115190000Y-112420000D02*
X115190000Y-109880000D01*
X115210000Y-109870000D02*
X120370000Y-109840000D01*
X115170000Y-117580000D02*
X115170000Y-115050000D01*
X114840000Y-115050000D02*
X115170000Y-115050000D01*
X114840000Y-115050000D02*
X114840000Y-112409981D01*
X115170000Y-102080000D02*
X120370000Y-102080000D01*
X115170000Y-89289809D02*
X115170000Y-102080000D01*
X120370000Y-89260000D02*
X120370000Y-102080000D01*
X115169914Y-89260000D02*
X120370000Y-89260000D01*
X112420000Y-90370000D02*
X112420000Y-93030000D01*
X94618383Y-90370000D02*
X112420000Y-90370000D01*
X94609989Y-93030000D02*
X112420000Y-93030000D01*
X94590000Y-90370000D02*
X94590000Y-93030000D01*
X89486000Y-115900000D02*
G75*
G03X89486000Y-115900000I-2286000J0D01*
G01*
D11*
X99975000Y-99975000D02*
X99975000Y-100200000D01*
X107225000Y-99975000D02*
X107225000Y-100300000D01*
X107225000Y-107225000D02*
X107225000Y-106900000D01*
X99975000Y-107225000D02*
X99975000Y-106900000D01*
X99975000Y-99975000D02*
X100300000Y-99975000D01*
X99975000Y-107225000D02*
X100300000Y-107225000D01*
X107225000Y-107225000D02*
X106900000Y-107225000D01*
X107225000Y-99975000D02*
X106900000Y-99975000D01*
X99975000Y-100200000D02*
X98550000Y-100200000D01*
D13*
X95700000Y-107400000D02*
X95700000Y-106400000D01*
X94000000Y-106400000D02*
X94000000Y-107400000D01*
X114050000Y-102900000D02*
X114050000Y-101900000D01*
X112350000Y-101900000D02*
X112350000Y-102900000D01*
X95450000Y-102700000D02*
X95450000Y-101700000D01*
X93750000Y-101700000D02*
X93750000Y-102700000D01*
X97050000Y-102700000D02*
X97050000Y-101700000D01*
X95350000Y-101700000D02*
X95350000Y-102700000D01*
X112050000Y-102900000D02*
X112050000Y-101900000D01*
X110350000Y-101900000D02*
X110350000Y-102900000D01*
X103850000Y-126000000D02*
X103850000Y-125000000D01*
X102150000Y-125000000D02*
X102150000Y-126000000D01*
X94710000Y-117520000D02*
X94710000Y-117120000D01*
X99290000Y-118290000D02*
X99290000Y-117120000D01*
X99290000Y-113710000D02*
X99290000Y-114880000D01*
X94710000Y-114480000D02*
X94710000Y-114880000D01*
X95480000Y-118290000D02*
X99290000Y-118290000D01*
X95480000Y-118290000D02*
X94710000Y-117520000D01*
X95480000Y-113710000D02*
X99290000Y-113710000D01*
X95480000Y-113710000D02*
X94710000Y-114480000D01*
X104000000Y-121350000D02*
X105000000Y-121350000D01*
X105000000Y-119650000D02*
X104000000Y-119650000D01*
X105000000Y-111650000D02*
X104000000Y-111650000D01*
X104000000Y-113350000D02*
X105000000Y-113350000D01*
X89250000Y-123400000D02*
X88250000Y-123400000D01*
X88250000Y-125100000D02*
X89250000Y-125100000D01*
X114050000Y-107700000D02*
X114050000Y-106700000D01*
X112350000Y-106700000D02*
X112350000Y-107700000D01*
X92000000Y-89400000D02*
X91000000Y-89400000D01*
X91000000Y-91100000D02*
X92000000Y-91100000D01*
X92000000Y-99400000D02*
X91000000Y-99400000D01*
X91000000Y-101100000D02*
X92000000Y-101100000D01*
X92000000Y-109400000D02*
X91000000Y-109400000D01*
X91000000Y-111100000D02*
X92000000Y-111100000D01*
X110500000Y-116850000D02*
X111500000Y-116850000D01*
X111500000Y-115150000D02*
X110500000Y-115150000D01*
X110500000Y-118850000D02*
X111500000Y-118850000D01*
X111500000Y-117150000D02*
X110500000Y-117150000D01*
X110500000Y-120850000D02*
X111500000Y-120850000D01*
X111500000Y-119150000D02*
X110500000Y-119150000D01*
X94090000Y-125410000D02*
X95350000Y-125410000D01*
X100910000Y-125410000D02*
X99650000Y-125410000D01*
X94090000Y-121650000D02*
X94090000Y-125410000D01*
X100910000Y-119400000D02*
X100910000Y-125410000D01*
X102650000Y-119150000D02*
X106350000Y-119150000D01*
X106350000Y-119150000D02*
X106350000Y-113850000D01*
X88250000Y-123100000D02*
X89250000Y-123100000D01*
X89250000Y-121400000D02*
X88250000Y-121400000D01*
X91000000Y-109100000D02*
X92000000Y-109100000D01*
X92000000Y-107400000D02*
X91000000Y-107400000D01*
X91000000Y-99100000D02*
X92000000Y-99100000D01*
X92000000Y-97400000D02*
X91000000Y-97400000D01*
X91000000Y-89100000D02*
X92000000Y-89100000D01*
X92000000Y-87400000D02*
X91000000Y-87400000D01*
X102050000Y-85680000D02*
X100850000Y-85680000D01*
X100850000Y-83920000D02*
X102050000Y-83920000D01*
X95800000Y-83920000D02*
X97000000Y-83920000D01*
X97000000Y-85680000D02*
X95800000Y-85680000D01*
X120886000Y-85200000D02*
G75*
G03X120886000Y-85200000I-2286000J0D01*
G01*
D10*
X103066667Y-103016667D02*
X103066667Y-103583333D01*
X103100000Y-103650000D01*
X103133333Y-103683333D01*
X103200000Y-103716667D01*
X103333333Y-103716667D01*
X103400000Y-103683333D01*
X103433333Y-103650000D01*
X103466667Y-103583333D01*
X103466667Y-103016667D01*
X103766666Y-103083333D02*
X103800000Y-103050000D01*
X103866666Y-103016667D01*
X104033333Y-103016667D01*
X104100000Y-103050000D01*
X104133333Y-103083333D01*
X104166666Y-103150000D01*
X104166666Y-103216667D01*
X104133333Y-103316667D01*
X103733333Y-103716667D01*
X104166666Y-103716667D01*
X96700000Y-106966666D02*
X96733333Y-107000000D01*
X96766667Y-107100000D01*
X96766667Y-107166666D01*
X96733333Y-107266666D01*
X96666667Y-107333333D01*
X96600000Y-107366666D01*
X96466667Y-107400000D01*
X96366667Y-107400000D01*
X96233333Y-107366666D01*
X96166667Y-107333333D01*
X96100000Y-107266666D01*
X96066667Y-107166666D01*
X96066667Y-107100000D01*
X96100000Y-107000000D01*
X96133333Y-106966666D01*
X96766667Y-106300000D02*
X96766667Y-106700000D01*
X96766667Y-106500000D02*
X96066667Y-106500000D01*
X96166667Y-106566666D01*
X96233333Y-106633333D01*
X96266667Y-106700000D01*
X114850000Y-102466666D02*
X114883333Y-102500000D01*
X114916667Y-102600000D01*
X114916667Y-102666666D01*
X114883333Y-102766666D01*
X114816667Y-102833333D01*
X114750000Y-102866666D01*
X114616667Y-102900000D01*
X114516667Y-102900000D01*
X114383333Y-102866666D01*
X114316667Y-102833333D01*
X114250000Y-102766666D01*
X114216667Y-102666666D01*
X114216667Y-102600000D01*
X114250000Y-102500000D01*
X114283333Y-102466666D01*
X114283333Y-102200000D02*
X114250000Y-102166666D01*
X114216667Y-102100000D01*
X114216667Y-101933333D01*
X114250000Y-101866666D01*
X114283333Y-101833333D01*
X114350000Y-101800000D01*
X114416667Y-101800000D01*
X114516667Y-101833333D01*
X114916667Y-102233333D01*
X114916667Y-101800000D01*
X94850000Y-99416666D02*
X94883333Y-99450000D01*
X94916667Y-99550000D01*
X94916667Y-99616666D01*
X94883333Y-99716666D01*
X94816667Y-99783333D01*
X94750000Y-99816666D01*
X94616667Y-99850000D01*
X94516667Y-99850000D01*
X94383333Y-99816666D01*
X94316667Y-99783333D01*
X94250000Y-99716666D01*
X94216667Y-99616666D01*
X94216667Y-99550000D01*
X94250000Y-99450000D01*
X94283333Y-99416666D01*
X94216667Y-99183333D02*
X94216667Y-98750000D01*
X94483333Y-98983333D01*
X94483333Y-98883333D01*
X94516667Y-98816666D01*
X94550000Y-98783333D01*
X94616667Y-98750000D01*
X94783333Y-98750000D01*
X94850000Y-98783333D01*
X94883333Y-98816666D01*
X94916667Y-98883333D01*
X94916667Y-99083333D01*
X94883333Y-99150000D01*
X94850000Y-99183333D01*
X96450000Y-99416666D02*
X96483333Y-99450000D01*
X96516667Y-99550000D01*
X96516667Y-99616666D01*
X96483333Y-99716666D01*
X96416667Y-99783333D01*
X96350000Y-99816666D01*
X96216667Y-99850000D01*
X96116667Y-99850000D01*
X95983333Y-99816666D01*
X95916667Y-99783333D01*
X95850000Y-99716666D01*
X95816667Y-99616666D01*
X95816667Y-99550000D01*
X95850000Y-99450000D01*
X95883333Y-99416666D01*
X96050000Y-98816666D02*
X96516667Y-98816666D01*
X95783333Y-98983333D02*
X96283333Y-99150000D01*
X96283333Y-98716666D01*
X110000000Y-102466666D02*
X110033333Y-102500000D01*
X110066667Y-102600000D01*
X110066667Y-102666666D01*
X110033333Y-102766666D01*
X109966667Y-102833333D01*
X109900000Y-102866666D01*
X109766667Y-102900000D01*
X109666667Y-102900000D01*
X109533333Y-102866666D01*
X109466667Y-102833333D01*
X109400000Y-102766666D01*
X109366667Y-102666666D01*
X109366667Y-102600000D01*
X109400000Y-102500000D01*
X109433333Y-102466666D01*
X109366667Y-101833333D02*
X109366667Y-102166666D01*
X109700000Y-102200000D01*
X109666667Y-102166666D01*
X109633333Y-102100000D01*
X109633333Y-101933333D01*
X109666667Y-101866666D01*
X109700000Y-101833333D01*
X109766667Y-101800000D01*
X109933333Y-101800000D01*
X110000000Y-101833333D01*
X110033333Y-101866666D01*
X110066667Y-101933333D01*
X110066667Y-102100000D01*
X110033333Y-102166666D01*
X110000000Y-102200000D01*
X104750000Y-125616666D02*
X104783333Y-125650000D01*
X104816667Y-125750000D01*
X104816667Y-125816666D01*
X104783333Y-125916666D01*
X104716667Y-125983333D01*
X104650000Y-126016666D01*
X104516667Y-126050000D01*
X104416667Y-126050000D01*
X104283333Y-126016666D01*
X104216667Y-125983333D01*
X104150000Y-125916666D01*
X104116667Y-125816666D01*
X104116667Y-125750000D01*
X104150000Y-125650000D01*
X104183333Y-125616666D01*
X104116667Y-125016666D02*
X104116667Y-125150000D01*
X104150000Y-125216666D01*
X104183333Y-125250000D01*
X104283333Y-125316666D01*
X104416667Y-125350000D01*
X104683333Y-125350000D01*
X104750000Y-125316666D01*
X104783333Y-125283333D01*
X104816667Y-125216666D01*
X104816667Y-125083333D01*
X104783333Y-125016666D01*
X104750000Y-124983333D01*
X104683333Y-124950000D01*
X104516667Y-124950000D01*
X104450000Y-124983333D01*
X104416667Y-125016666D01*
X104383333Y-125083333D01*
X104383333Y-125216666D01*
X104416667Y-125283333D01*
X104450000Y-125316666D01*
X104516667Y-125350000D01*
X97083334Y-113300000D02*
X97050000Y-113333333D01*
X96950000Y-113366667D01*
X96883334Y-113366667D01*
X96783334Y-113333333D01*
X96716667Y-113266667D01*
X96683334Y-113200000D01*
X96650000Y-113066667D01*
X96650000Y-112966667D01*
X96683334Y-112833333D01*
X96716667Y-112766667D01*
X96783334Y-112700000D01*
X96883334Y-112666667D01*
X96950000Y-112666667D01*
X97050000Y-112700000D01*
X97083334Y-112733333D01*
X97316667Y-112666667D02*
X97783334Y-112666667D01*
X97483334Y-113366667D01*
X93953334Y-118060000D02*
X94486667Y-118060000D01*
X94220000Y-118326667D02*
X94220000Y-117793333D01*
X104383334Y-122400000D02*
X104350000Y-122433333D01*
X104250000Y-122466667D01*
X104183334Y-122466667D01*
X104083334Y-122433333D01*
X104016667Y-122366667D01*
X103983334Y-122300000D01*
X103950000Y-122166667D01*
X103950000Y-122066667D01*
X103983334Y-121933333D01*
X104016667Y-121866667D01*
X104083334Y-121800000D01*
X104183334Y-121766667D01*
X104250000Y-121766667D01*
X104350000Y-121800000D01*
X104383334Y-121833333D01*
X104783334Y-122066667D02*
X104716667Y-122033333D01*
X104683334Y-122000000D01*
X104650000Y-121933333D01*
X104650000Y-121900000D01*
X104683334Y-121833333D01*
X104716667Y-121800000D01*
X104783334Y-121766667D01*
X104916667Y-121766667D01*
X104983334Y-121800000D01*
X105016667Y-121833333D01*
X105050000Y-121900000D01*
X105050000Y-121933333D01*
X105016667Y-122000000D01*
X104983334Y-122033333D01*
X104916667Y-122066667D01*
X104783334Y-122066667D01*
X104716667Y-122100000D01*
X104683334Y-122133333D01*
X104650000Y-122200000D01*
X104650000Y-122333333D01*
X104683334Y-122400000D01*
X104716667Y-122433333D01*
X104783334Y-122466667D01*
X104916667Y-122466667D01*
X104983334Y-122433333D01*
X105016667Y-122400000D01*
X105050000Y-122333333D01*
X105050000Y-122200000D01*
X105016667Y-122133333D01*
X104983334Y-122100000D01*
X104916667Y-122066667D01*
X104383334Y-111200000D02*
X104350000Y-111233333D01*
X104250000Y-111266667D01*
X104183334Y-111266667D01*
X104083334Y-111233333D01*
X104016667Y-111166667D01*
X103983334Y-111100000D01*
X103950000Y-110966667D01*
X103950000Y-110866667D01*
X103983334Y-110733333D01*
X104016667Y-110666667D01*
X104083334Y-110600000D01*
X104183334Y-110566667D01*
X104250000Y-110566667D01*
X104350000Y-110600000D01*
X104383334Y-110633333D01*
X104716667Y-111266667D02*
X104850000Y-111266667D01*
X104916667Y-111233333D01*
X104950000Y-111200000D01*
X105016667Y-111100000D01*
X105050000Y-110966667D01*
X105050000Y-110700000D01*
X105016667Y-110633333D01*
X104983334Y-110600000D01*
X104916667Y-110566667D01*
X104783334Y-110566667D01*
X104716667Y-110600000D01*
X104683334Y-110633333D01*
X104650000Y-110700000D01*
X104650000Y-110866667D01*
X104683334Y-110933333D01*
X104716667Y-110966667D01*
X104783334Y-111000000D01*
X104916667Y-111000000D01*
X104983334Y-110966667D01*
X105016667Y-110933333D01*
X105050000Y-110866667D01*
X91583334Y-124566667D02*
X91350000Y-124233333D01*
X91183334Y-124566667D02*
X91183334Y-123866667D01*
X91450000Y-123866667D01*
X91516667Y-123900000D01*
X91550000Y-123933333D01*
X91583334Y-124000000D01*
X91583334Y-124100000D01*
X91550000Y-124166667D01*
X91516667Y-124200000D01*
X91450000Y-124233333D01*
X91183334Y-124233333D01*
X92250000Y-124566667D02*
X91850000Y-124566667D01*
X92050000Y-124566667D02*
X92050000Y-123866667D01*
X91983334Y-123966667D01*
X91916667Y-124033333D01*
X91850000Y-124066667D01*
X113516667Y-110366666D02*
X113183333Y-110600000D01*
X113516667Y-110766666D02*
X112816667Y-110766666D01*
X112816667Y-110500000D01*
X112850000Y-110433333D01*
X112883333Y-110400000D01*
X112950000Y-110366666D01*
X113050000Y-110366666D01*
X113116667Y-110400000D01*
X113150000Y-110433333D01*
X113183333Y-110500000D01*
X113183333Y-110766666D01*
X112883333Y-110100000D02*
X112850000Y-110066666D01*
X112816667Y-110000000D01*
X112816667Y-109833333D01*
X112850000Y-109766666D01*
X112883333Y-109733333D01*
X112950000Y-109700000D01*
X113016667Y-109700000D01*
X113116667Y-109733333D01*
X113516667Y-110133333D01*
X113516667Y-109700000D01*
X93216667Y-92066666D02*
X92883333Y-92300000D01*
X93216667Y-92466666D02*
X92516667Y-92466666D01*
X92516667Y-92200000D01*
X92550000Y-92133333D01*
X92583333Y-92100000D01*
X92650000Y-92066666D01*
X92750000Y-92066666D01*
X92816667Y-92100000D01*
X92850000Y-92133333D01*
X92883333Y-92200000D01*
X92883333Y-92466666D01*
X92516667Y-91833333D02*
X92516667Y-91400000D01*
X92783333Y-91633333D01*
X92783333Y-91533333D01*
X92816667Y-91466666D01*
X92850000Y-91433333D01*
X92916667Y-91400000D01*
X93083333Y-91400000D01*
X93150000Y-91433333D01*
X93183333Y-91466666D01*
X93216667Y-91533333D01*
X93216667Y-91733333D01*
X93183333Y-91800000D01*
X93150000Y-91833333D01*
X93116667Y-102016666D02*
X92783333Y-102250000D01*
X93116667Y-102416666D02*
X92416667Y-102416666D01*
X92416667Y-102150000D01*
X92450000Y-102083333D01*
X92483333Y-102050000D01*
X92550000Y-102016666D01*
X92650000Y-102016666D01*
X92716667Y-102050000D01*
X92750000Y-102083333D01*
X92783333Y-102150000D01*
X92783333Y-102416666D01*
X92650000Y-101416666D02*
X93116667Y-101416666D01*
X92383333Y-101583333D02*
X92883333Y-101750000D01*
X92883333Y-101316666D01*
X93216667Y-112016666D02*
X92883333Y-112250000D01*
X93216667Y-112416666D02*
X92516667Y-112416666D01*
X92516667Y-112150000D01*
X92550000Y-112083333D01*
X92583333Y-112050000D01*
X92650000Y-112016666D01*
X92750000Y-112016666D01*
X92816667Y-112050000D01*
X92850000Y-112083333D01*
X92883333Y-112150000D01*
X92883333Y-112416666D01*
X92516667Y-111383333D02*
X92516667Y-111716666D01*
X92850000Y-111750000D01*
X92816667Y-111716666D01*
X92783333Y-111650000D01*
X92783333Y-111483333D01*
X92816667Y-111416666D01*
X92850000Y-111383333D01*
X92916667Y-111350000D01*
X93083333Y-111350000D01*
X93150000Y-111383333D01*
X93183333Y-111416666D01*
X93216667Y-111483333D01*
X93216667Y-111650000D01*
X93183333Y-111716666D01*
X93150000Y-111750000D01*
X107883334Y-116316667D02*
X107650000Y-115983333D01*
X107483334Y-116316667D02*
X107483334Y-115616667D01*
X107750000Y-115616667D01*
X107816667Y-115650000D01*
X107850000Y-115683333D01*
X107883334Y-115750000D01*
X107883334Y-115850000D01*
X107850000Y-115916667D01*
X107816667Y-115950000D01*
X107750000Y-115983333D01*
X107483334Y-115983333D01*
X108483334Y-115616667D02*
X108350000Y-115616667D01*
X108283334Y-115650000D01*
X108250000Y-115683333D01*
X108183334Y-115783333D01*
X108150000Y-115916667D01*
X108150000Y-116183333D01*
X108183334Y-116250000D01*
X108216667Y-116283333D01*
X108283334Y-116316667D01*
X108416667Y-116316667D01*
X108483334Y-116283333D01*
X108516667Y-116250000D01*
X108550000Y-116183333D01*
X108550000Y-116016667D01*
X108516667Y-115950000D01*
X108483334Y-115916667D01*
X108416667Y-115883333D01*
X108283334Y-115883333D01*
X108216667Y-115916667D01*
X108183334Y-115950000D01*
X108150000Y-116016667D01*
X107883334Y-118316667D02*
X107650000Y-117983333D01*
X107483334Y-118316667D02*
X107483334Y-117616667D01*
X107750000Y-117616667D01*
X107816667Y-117650000D01*
X107850000Y-117683333D01*
X107883334Y-117750000D01*
X107883334Y-117850000D01*
X107850000Y-117916667D01*
X107816667Y-117950000D01*
X107750000Y-117983333D01*
X107483334Y-117983333D01*
X108116667Y-117616667D02*
X108583334Y-117616667D01*
X108283334Y-118316667D01*
X107883334Y-120316667D02*
X107650000Y-119983333D01*
X107483334Y-120316667D02*
X107483334Y-119616667D01*
X107750000Y-119616667D01*
X107816667Y-119650000D01*
X107850000Y-119683333D01*
X107883334Y-119750000D01*
X107883334Y-119850000D01*
X107850000Y-119916667D01*
X107816667Y-119950000D01*
X107750000Y-119983333D01*
X107483334Y-119983333D01*
X108283334Y-119916667D02*
X108216667Y-119883333D01*
X108183334Y-119850000D01*
X108150000Y-119783333D01*
X108150000Y-119750000D01*
X108183334Y-119683333D01*
X108216667Y-119650000D01*
X108283334Y-119616667D01*
X108416667Y-119616667D01*
X108483334Y-119650000D01*
X108516667Y-119683333D01*
X108550000Y-119750000D01*
X108550000Y-119783333D01*
X108516667Y-119850000D01*
X108483334Y-119883333D01*
X108416667Y-119916667D01*
X108283334Y-119916667D01*
X108216667Y-119950000D01*
X108183334Y-119983333D01*
X108150000Y-120050000D01*
X108150000Y-120183333D01*
X108183334Y-120250000D01*
X108216667Y-120283333D01*
X108283334Y-120316667D01*
X108416667Y-120316667D01*
X108483334Y-120283333D01*
X108516667Y-120250000D01*
X108550000Y-120183333D01*
X108550000Y-120050000D01*
X108516667Y-119983333D01*
X108483334Y-119950000D01*
X108416667Y-119916667D01*
X93716667Y-126166667D02*
X93716667Y-126733333D01*
X93750000Y-126800000D01*
X93783333Y-126833333D01*
X93850000Y-126866667D01*
X93983333Y-126866667D01*
X94050000Y-126833333D01*
X94083333Y-126800000D01*
X94116667Y-126733333D01*
X94116667Y-126166667D01*
X94816666Y-126866667D02*
X94416666Y-126866667D01*
X94616666Y-126866667D02*
X94616666Y-126166667D01*
X94550000Y-126266667D01*
X94483333Y-126333333D01*
X94416666Y-126366667D01*
X101683333Y-116833333D02*
X102016667Y-116833333D01*
X101316667Y-117066666D02*
X101683333Y-116833333D01*
X101316667Y-116600000D01*
X102016667Y-116000000D02*
X102016667Y-116400000D01*
X102016667Y-116200000D02*
X101316667Y-116200000D01*
X101416667Y-116266666D01*
X101483333Y-116333333D01*
X101516667Y-116400000D01*
X91500000Y-122600000D02*
X91466666Y-122633333D01*
X91366666Y-122666667D01*
X91300000Y-122666667D01*
X91200000Y-122633333D01*
X91133333Y-122566667D01*
X91100000Y-122500000D01*
X91066666Y-122366667D01*
X91066666Y-122266667D01*
X91100000Y-122133333D01*
X91133333Y-122066667D01*
X91200000Y-122000000D01*
X91300000Y-121966667D01*
X91366666Y-121966667D01*
X91466666Y-122000000D01*
X91500000Y-122033333D01*
X92166666Y-122666667D02*
X91766666Y-122666667D01*
X91966666Y-122666667D02*
X91966666Y-121966667D01*
X91900000Y-122066667D01*
X91833333Y-122133333D01*
X91766666Y-122166667D01*
X92600000Y-121966667D02*
X92666667Y-121966667D01*
X92733333Y-122000000D01*
X92766667Y-122033333D01*
X92800000Y-122100000D01*
X92833333Y-122233333D01*
X92833333Y-122400000D01*
X92800000Y-122533333D01*
X92766667Y-122600000D01*
X92733333Y-122633333D01*
X92666667Y-122666667D01*
X92600000Y-122666667D01*
X92533333Y-122633333D01*
X92500000Y-122600000D01*
X92466667Y-122533333D01*
X92433333Y-122400000D01*
X92433333Y-122233333D01*
X92466667Y-122100000D01*
X92500000Y-122033333D01*
X92533333Y-122000000D01*
X92600000Y-121966667D01*
X93000000Y-106800000D02*
X93033333Y-106833334D01*
X93066667Y-106933334D01*
X93066667Y-107000000D01*
X93033333Y-107100000D01*
X92966667Y-107166667D01*
X92900000Y-107200000D01*
X92766667Y-107233334D01*
X92666667Y-107233334D01*
X92533333Y-107200000D01*
X92466667Y-107166667D01*
X92400000Y-107100000D01*
X92366667Y-107000000D01*
X92366667Y-106933334D01*
X92400000Y-106833334D01*
X92433333Y-106800000D01*
X93066667Y-106133334D02*
X93066667Y-106533334D01*
X93066667Y-106333334D02*
X92366667Y-106333334D01*
X92466667Y-106400000D01*
X92533333Y-106466667D01*
X92566667Y-106533334D01*
X93066667Y-105466667D02*
X93066667Y-105866667D01*
X93066667Y-105666667D02*
X92366667Y-105666667D01*
X92466667Y-105733333D01*
X92533333Y-105800000D01*
X92566667Y-105866667D01*
X93100000Y-96750000D02*
X93133333Y-96783334D01*
X93166667Y-96883334D01*
X93166667Y-96950000D01*
X93133333Y-97050000D01*
X93066667Y-97116667D01*
X93000000Y-97150000D01*
X92866667Y-97183334D01*
X92766667Y-97183334D01*
X92633333Y-97150000D01*
X92566667Y-97116667D01*
X92500000Y-97050000D01*
X92466667Y-96950000D01*
X92466667Y-96883334D01*
X92500000Y-96783334D01*
X92533333Y-96750000D01*
X93166667Y-96083334D02*
X93166667Y-96483334D01*
X93166667Y-96283334D02*
X92466667Y-96283334D01*
X92566667Y-96350000D01*
X92633333Y-96416667D01*
X92666667Y-96483334D01*
X92533333Y-95816667D02*
X92500000Y-95783333D01*
X92466667Y-95716667D01*
X92466667Y-95550000D01*
X92500000Y-95483333D01*
X92533333Y-95450000D01*
X92600000Y-95416667D01*
X92666667Y-95416667D01*
X92766667Y-95450000D01*
X93166667Y-95850000D01*
X93166667Y-95416667D01*
X93000000Y-86600000D02*
X93033333Y-86633334D01*
X93066667Y-86733334D01*
X93066667Y-86800000D01*
X93033333Y-86900000D01*
X92966667Y-86966667D01*
X92900000Y-87000000D01*
X92766667Y-87033334D01*
X92666667Y-87033334D01*
X92533333Y-87000000D01*
X92466667Y-86966667D01*
X92400000Y-86900000D01*
X92366667Y-86800000D01*
X92366667Y-86733334D01*
X92400000Y-86633334D01*
X92433333Y-86600000D01*
X93066667Y-85933334D02*
X93066667Y-86333334D01*
X93066667Y-86133334D02*
X92366667Y-86133334D01*
X92466667Y-86200000D01*
X92533333Y-86266667D01*
X92566667Y-86333334D01*
X92366667Y-85700000D02*
X92366667Y-85266667D01*
X92633333Y-85500000D01*
X92633333Y-85400000D01*
X92666667Y-85333333D01*
X92700000Y-85300000D01*
X92766667Y-85266667D01*
X92933333Y-85266667D01*
X93000000Y-85300000D01*
X93033333Y-85333333D01*
X93066667Y-85400000D01*
X93066667Y-85600000D01*
X93033333Y-85666667D01*
X93000000Y-85700000D01*
X101333334Y-83566667D02*
X101100000Y-83233333D01*
X100933334Y-83566667D02*
X100933334Y-82866667D01*
X101200000Y-82866667D01*
X101266667Y-82900000D01*
X101300000Y-82933333D01*
X101333334Y-83000000D01*
X101333334Y-83100000D01*
X101300000Y-83166667D01*
X101266667Y-83200000D01*
X101200000Y-83233333D01*
X100933334Y-83233333D01*
X101666667Y-83566667D02*
X101800000Y-83566667D01*
X101866667Y-83533333D01*
X101900000Y-83500000D01*
X101966667Y-83400000D01*
X102000000Y-83266667D01*
X102000000Y-83000000D01*
X101966667Y-82933333D01*
X101933334Y-82900000D01*
X101866667Y-82866667D01*
X101733334Y-82866667D01*
X101666667Y-82900000D01*
X101633334Y-82933333D01*
X101600000Y-83000000D01*
X101600000Y-83166667D01*
X101633334Y-83233333D01*
X101666667Y-83266667D01*
X101733334Y-83300000D01*
X101866667Y-83300000D01*
X101933334Y-83266667D01*
X101966667Y-83233333D01*
X102000000Y-83166667D01*
X95950000Y-83616667D02*
X95716666Y-83283333D01*
X95550000Y-83616667D02*
X95550000Y-82916667D01*
X95816666Y-82916667D01*
X95883333Y-82950000D01*
X95916666Y-82983333D01*
X95950000Y-83050000D01*
X95950000Y-83150000D01*
X95916666Y-83216667D01*
X95883333Y-83250000D01*
X95816666Y-83283333D01*
X95550000Y-83283333D01*
X96616666Y-83616667D02*
X96216666Y-83616667D01*
X96416666Y-83616667D02*
X96416666Y-82916667D01*
X96350000Y-83016667D01*
X96283333Y-83083333D01*
X96216666Y-83116667D01*
X97050000Y-82916667D02*
X97116667Y-82916667D01*
X97183333Y-82950000D01*
X97216667Y-82983333D01*
X97250000Y-83050000D01*
X97283333Y-83183333D01*
X97283333Y-83350000D01*
X97250000Y-83483333D01*
X97216667Y-83550000D01*
X97183333Y-83583333D01*
X97116667Y-83616667D01*
X97050000Y-83616667D01*
X96983333Y-83583333D01*
X96950000Y-83550000D01*
X96916667Y-83483333D01*
X96883333Y-83350000D01*
X96883333Y-83183333D01*
X96916667Y-83050000D01*
X96950000Y-82983333D01*
X96983333Y-82950000D01*
X97050000Y-82916667D01*
M02*
